<svg width="180" height="180" viewBox="0 0 180 180" fill="none" xmlns="http://www.w3.org/2000/svg">
  <rect width="180" height="180" rx="40" fill="#667eea"/>
  <rect width="180" height="180" rx="40" fill="url(#gradient)"/>

  <!-- AI Brain Icon -->
  <g transform="translate(45, 45)">
    <!-- Brain outline -->
    <path d="M45 22.5C45 10.1 55.1 0 67.5 0C79.9 0 90 10.1 90 22.5C90 34.9 79.9 45 67.5 45H22.5C10.1 45 0 34.9 0 22.5C0 10.1 10.1 0 22.5 0C34.9 0 45 10.1 45 22.5Z" fill="white" opacity="0.9"/>

    <!-- Neural network nodes -->
    <circle cx="22.5" cy="22.5" r="2.5" fill="#667eea"/>
    <circle cx="45" cy="15" r="2.5" fill="#667eea"/>
    <circle cx="67.5" cy="22.5" r="2.5" fill="#667eea"/>
    <circle cx="33.75" cy="33.75" r="2.5" fill="#667eea"/>
    <circle cx="56.25" cy="33.75" r="2.5" fill="#667eea"/>

    <!-- Neural connections -->
    <line x1="22.5" y1="22.5" x2="45" y2="15" stroke="#667eea" stroke-width="1.5" opacity="0.6"/>
    <line x1="45" y1="15" x2="67.5" y2="22.5" stroke="#667eea" stroke-width="1.5" opacity="0.6"/>
    <line x1="22.5" y1="22.5" x2="33.75" y2="33.75" stroke="#667eea" stroke-width="1.5" opacity="0.6"/>
    <line x1="67.5" y1="22.5" x2="56.25" y2="33.75" stroke="#667eea" stroke-width="1.5" opacity="0.6"/>
    <line x1="33.75" y1="33.75" x2="56.25" y2="33.75" stroke="#667eea" stroke-width="1.5" opacity="0.6"/>

    <!-- Text -->
    <text x="45" y="65" text-anchor="middle" fill="white" font-family="Inter, sans-serif" font-size="11" font-weight="600">TRAE AI</text>
    <text x="45" y="78" text-anchor="middle" fill="white" font-family="Inter, sans-serif" font-size="7" opacity="0.8">AGENCY</text>
  </g>

  <defs>
    <linearGradient id="gradient" x1="0%" y1="0%" x2="100%" y2="100%">
      <stop offset="0%" style="stop-color:#667eea;stop-opacity:1" />
      <stop offset="100%" style="stop-color:#764ba2;stop-opacity:1" />
    </linearGradient>
  </defs>
</svg>
