<svg width="192" height="192" viewBox="0 0 192 192" fill="none" xmlns="http://www.w3.org/2000/svg">
  <rect width="192" height="192" rx="24" fill="#667eea"/>
  <rect width="192" height="192" rx="24" fill="url(#gradient)"/>

  <!-- AI Brain Icon -->
  <g transform="translate(48, 48)">
    <!-- Brain outline -->
    <path d="M48 24C48 10.7 58.7 0 72 0C85.3 0 96 10.7 96 24C96 37.3 85.3 48 72 48H24C10.7 48 0 37.3 0 24C0 10.7 10.7 0 24 0C37.3 0 48 10.7 48 24Z" fill="white" opacity="0.9"/>

    <!-- Neural network nodes -->
    <circle cx="24" cy="24" r="3" fill="#667eea"/>
    <circle cx="48" cy="16" r="3" fill="#667eea"/>
    <circle cx="72" cy="24" r="3" fill="#667eea"/>
    <circle cx="36" cy="36" r="3" fill="#667eea"/>
    <circle cx="60" cy="36" r="3" fill="#667eea"/>

    <!-- Neural connections -->
    <line x1="24" y1="24" x2="48" y2="16" stroke="#667eea" stroke-width="2" opacity="0.6"/>
    <line x1="48" y1="16" x2="72" y2="24" stroke="#667eea" stroke-width="2" opacity="0.6"/>
    <line x1="24" y1="24" x2="36" y2="36" stroke="#667eea" stroke-width="2" opacity="0.6"/>
    <line x1="72" y1="24" x2="60" y2="36" stroke="#667eea" stroke-width="2" opacity="0.6"/>
    <line x1="36" y1="36" x2="60" y2="36" stroke="#667eea" stroke-width="2" opacity="0.6"/>

    <!-- Text -->
    <text x="48" y="70" text-anchor="middle" fill="white" font-family="Inter, sans-serif" font-size="12" font-weight="600">TRAE AI</text>
    <text x="48" y="85" text-anchor="middle" fill="white" font-family="Inter, sans-serif" font-size="8" opacity="0.8">AGENCY</text>
  </g>

  <defs>
    <linearGradient id="gradient" x1="0%" y1="0%" x2="100%" y2="100%">
      <stop offset="0%" style="stop-color:#667eea;stop-opacity:1" />
      <stop offset="100%" style="stop-color:#764ba2;stop-opacity:1" />
    </linearGradient>
  </defs>
</svg>
